<?xml version="1.0" encoding="utf-8"?>
<!-- Generator: Adobe Illustrator 22.1.0, SVG Export Plug-In . SVG Version: 6.00 Build 0)  -->
<svg version="1.1" id="Ebene_1" xmlns="http://www.w3.org/2000/svg" xmlns:xlink="http://www.w3.org/1999/xlink" x="0px" y="0px"
	 viewBox="0 0 637.8 126.6" style="enable-background:new 0 0 637.8 126.6;" xml:space="preserve">
<style type="text/css">
	.st0{fill:#6E6E6E;}
	.st1{fill:#919291;}
	.st2{fill:#E30315;}
</style>
<polygon class="st0" points="144,126.3 144,108.3 146.4,108.3 155.8,122.4 155.8,108.3 158.1,108.3 158.1,126.3 155.7,126.3 
	146.2,112.1 146.2,126.3 144,126.3 "/>
<path class="st0" d="M194.2,122.1l2.3,0.3c-0.4,1.3-1,2.4-2,3.1c-1,0.7-2.2,1.1-3.7,1.1c-1.9,0-3.4-0.6-4.5-1.8
	c-1.1-1.2-1.7-2.8-1.7-4.9c0-2.2,0.6-3.9,1.7-5.1c1.1-1.2,2.6-1.8,4.4-1.8c1.7,0,3.2,0.6,4.3,1.8c1.1,1.2,1.7,2.9,1.7,5
	c0,0.1,0,0.3,0,0.6h-9.7c0.1,1.4,0.5,2.5,1.2,3.3c0.7,0.8,1.6,1.1,2.7,1.1c0.8,0,1.5-0.2,2.1-0.6C193.4,123.7,193.8,123,194.2,122.1
	L194.2,122.1z M186.9,118.5h7.3c-0.1-1.1-0.4-1.9-0.8-2.5c-0.7-0.9-1.6-1.3-2.7-1.3c-1,0-1.9,0.3-2.6,1
	C187.4,116.5,187,117.4,186.9,118.5L186.9,118.5z"/>
<path class="st0" d="M231.2,126.3v-1.9c-1,1.5-2.4,2.2-4.1,2.2c-0.8,0-1.5-0.1-2.2-0.4c-0.7-0.3-1.2-0.7-1.5-1.1
	c-0.3-0.4-0.6-1-0.7-1.6c-0.1-0.4-0.1-1.1-0.1-2.1v-8.1h2.2v7.2c0,1.2,0,1.9,0.1,2.3c0.1,0.6,0.4,1,0.9,1.4c0.5,0.3,1,0.5,1.7,0.5
	c0.7,0,1.3-0.2,1.9-0.5c0.6-0.3,1-0.8,1.2-1.4c0.2-0.6,0.4-1.4,0.4-2.5v-7h2.2v13H231.2L231.2,126.3z"/>
<polygon class="st0" points="260,126.3 260,108.3 262.2,108.3 262.2,118.5 267.5,113.2 270.3,113.2 265.3,118.1 270.8,126.3 
	268.1,126.3 263.8,119.6 262.2,121.1 262.2,126.3 260,126.3 "/>
<path class="st0" d="M296,110.8v-2.5h2.2v2.5H296L296,110.8z M296,126.3v-13h2.2v13H296L296,126.3z"/>
<path class="st0" d="M324.9,126.3v-13h2v2c0.5-0.9,1-1.5,1.4-1.8c0.4-0.3,0.9-0.4,1.4-0.4c0.7,0,1.5,0.2,2.3,0.7l-0.8,2.1
	c-0.5-0.3-1.1-0.5-1.6-0.5c-0.5,0-0.9,0.1-1.3,0.4c-0.4,0.3-0.7,0.7-0.8,1.2c-0.2,0.8-0.4,1.6-0.4,2.6v6.8H324.9L324.9,126.3z"/>
<path class="st0" d="M365.3,121.5l2.2,0.3c-0.2,1.5-0.8,2.7-1.8,3.5c-1,0.8-2.2,1.3-3.6,1.3c-1.8,0-3.2-0.6-4.3-1.7
	c-1.1-1.2-1.6-2.8-1.6-5c0-1.4,0.2-2.6,0.7-3.7c0.5-1.1,1.2-1.8,2.1-2.4c1-0.5,2-0.8,3.1-0.8c1.4,0,2.6,0.4,3.5,1.1
	c0.9,0.7,1.5,1.7,1.7,3.1l-2.1,0.3c-0.2-0.9-0.6-1.5-1.1-2c-0.5-0.4-1.1-0.7-1.9-0.7c-1.1,0-2,0.4-2.7,1.2c-0.7,0.8-1,2.1-1,3.8
	c0,1.8,0.3,3,1,3.8c0.7,0.8,1.5,1.2,2.6,1.2c0.9,0,1.6-0.3,2.2-0.8C364.7,123.4,365.1,122.6,365.3,121.5L365.3,121.5z"/>
<path class="st0" d="M392.7,126.3v-18h2.2v6.5c1-1.2,2.3-1.8,3.9-1.8c1,0,1.8,0.2,2.5,0.6c0.7,0.4,1.2,0.9,1.5,1.6
	c0.3,0.7,0.5,1.6,0.5,2.9v8.3h-2.2V118c0-1.1-0.2-1.9-0.7-2.4c-0.5-0.5-1.2-0.8-2-0.8c-0.7,0-1.3,0.2-1.8,0.5
	c-0.6,0.3-1,0.8-1.2,1.4c-0.2,0.6-0.4,1.4-0.4,2.4v7.1H392.7L392.7,126.3z"/>
<path class="st0" d="M439,122.1l2.3,0.3c-0.4,1.3-1,2.4-2,3.1c-1,0.7-2.2,1.1-3.7,1.1c-1.9,0-3.4-0.6-4.5-1.8
	c-1.1-1.2-1.7-2.8-1.7-4.9c0-2.2,0.6-3.9,1.7-5.1c1.1-1.2,2.6-1.8,4.4-1.8c1.7,0,3.2,0.6,4.3,1.8c1.1,1.2,1.7,2.9,1.7,5
	c0,0.1,0,0.3,0,0.6h-9.7c0.1,1.4,0.5,2.5,1.2,3.3c0.7,0.8,1.6,1.1,2.7,1.1c0.8,0,1.5-0.2,2.1-0.6C438.2,123.7,438.7,123,439,122.1
	L439,122.1z M431.8,118.5h7.3c-0.1-1.1-0.4-1.9-0.8-2.5c-0.7-0.9-1.6-1.3-2.7-1.3c-1,0-1.9,0.3-2.6,1
	C432.2,116.5,431.8,117.4,431.8,118.5L431.8,118.5z"/>
<path class="st0" d="M467.5,126.3v-13h2v1.9c1-1.4,2.3-2.1,4.1-2.1c0.8,0,1.5,0.1,2.2,0.4c0.7,0.3,1.2,0.7,1.5,1.1
	c0.3,0.5,0.6,1,0.7,1.6c0.1,0.4,0.1,1.1,0.1,2.1v8h-2.2v-7.9c0-0.9-0.1-1.6-0.3-2c-0.2-0.4-0.5-0.8-0.9-1.1c-0.4-0.3-1-0.4-1.5-0.4
	c-0.9,0-1.8,0.3-2.4,0.9c-0.7,0.6-1,1.7-1,3.4v7.1H467.5L467.5,126.3z"/>
<path class="st1" d="M43.3,50.2c-7-3.7-12.2-5.1-18.4-5.1c-11.3,0-20.3,7.8-20.3,17.8c0,5.6,2.4,9.8,7,12.1c1.8,0.9,3.6,1.5,7.1,2.2
	c3.2,0.7,4.6,1.8,4.6,3.5c0,1.8-1.6,2.9-4.1,2.9c-4.6,0-9.3-2.2-12.3-5.8L0.2,91.1C7.9,95.3,13.6,97,19.8,97
	c11.8,0,21.5-8.1,21.5-18c0-4.5-2.1-8.8-5.4-11.1c-1.8-1.2-4.6-2.3-8.1-3.2c-4.4-1.1-5.3-1.6-5.3-3.2c0-1.5,1.5-2.6,3.4-2.6
	c3.8,0,7.8,1.6,10.8,4.4L43.3,50.2L43.3,50.2z"/>
<polygon class="st1" points="67.3,74 71.5,74.4 73.1,61.2 68.8,61.6 70.4,49.5 53.2,49.5 51.7,61.6 47.4,60.9 45.8,74.4 50.2,74 
	47.5,95.7 64.7,95.7 67.3,74 "/>
<path class="st1" d="M115.4,80.8c0.2-1.6,0.3-2.7,0.3-3.6c0-10.1-8.9-18.1-20.3-18.1C83.2,59.2,74,67.6,74,78.8
	c0,10.6,8.4,17.9,20.7,17.9c6,0,11.2-1.9,15.2-5.3c2.4-2.1,3.6-4.1,4.9-7.7H98.3c-0.8,2.1-1.9,3-3.7,3c-2.3,0-3.8-1.9-3.8-4.7
	c0-0.2,0-0.8,0.1-1.3H115.4L115.4,80.8z M91.5,73.7c0.5-3.2,1.9-4.6,4.2-4.6c2.5,0,3.7,1.5,3.8,4.6H91.5L91.5,73.7z"/>
<path class="st1" d="M133.8,40.5c-5.3,0-9.8,3.9-9.8,8.5c0,4.4,4.1,7.8,9.5,7.8c5.4,0,9.9-3.7,9.9-8.1
	C143.3,44.3,139,40.5,133.8,40.5L133.8,40.5z M140.7,61.2h-17.1l-4.2,34.6h17.1L140.7,61.2L140.7,61.2z"/>
<path class="st1" d="M147.9,61.2l-4.2,34.6h17.1l2-16.1c0.4-2.9,0.4-3.3,1-4.2c0.6-0.7,1.5-1.3,2.5-1.3c1.4,0,2.2,0.9,2.2,2.5
	c0,0.5-0.1,1-0.2,2.4l-2.1,16.7h17.2l2.4-19.3c0.2-1.9,0.4-4.1,0.4-5.3c0-6.4-4.8-11.2-11.3-11.2c-4.4,0-7.4,2.1-10.9,7.5l-0.6-0.2
	c0.9-2.2,1.2-3.3,1.7-6.1H147.9L147.9,61.2z"/>
<path class="st1" d="M253.1,61.2h-18.9l-2.6,9.4c-1.2,4.2-1.5,5.8-1.7,9.2h-0.7c-0.1-3-0.4-6.1-0.7-8.6l-1.4-10h-12.2L211.4,72
	c-1.3,3.8-1.3,4.4-2.1,7.9l-0.7-0.1c0.1-2.9,0.2-4.1,0.2-5.7c0-1.3-0.1-2.7-0.2-4.2l-0.9-8.8h-17.3l8.4,34.6h13.8l3.4-8.4
	c0.8-1.9,1.5-4.1,2.7-9l0.6,0.1c-0.1,1.1-0.1,2.1-0.1,2.6c0,2.6,0.1,4.1,0.7,8.3l0.7,6.3h14L253.1,61.2L253.1,61.2z"/>
<path class="st1" d="M296.4,61.2h-17c0,2.4,0.1,3.5,0.4,6l-0.5,0.2c-0.9-2.3-1.4-3.3-2.4-4.4c-1.8-2-4.7-3.1-8.1-3.1
	c-9.2,0-17.3,9.6-17.3,20.6c0,8.7,6.7,16.2,14.4,16.2c4.5,0,7.7-2.2,10.6-7.3l0.6,0.2c-1.1,3-1.4,3.9-1.9,6.1h17L296.4,61.2
	L296.4,61.2z M273.8,73.5c2.4,0,4.1,1.9,4.1,4.7c0,3-2.1,5.4-4.9,5.4c-2.4,0-4.2-1.8-4.2-4.4C268.8,76.1,271.1,73.5,273.8,73.5
	L273.8,73.5z"/>
<polygon class="st1" points="323.2,41.8 306.1,41.8 299.4,95.7 316.5,95.7 323.2,41.8 "/>
<path class="st1" d="M370.7,41.8h-17.1l-1.9,15.5c-0.3,2.3-0.5,5.3-0.5,7.1c0,1.1,0.1,1.6,0.2,3l-0.6,0.1c-1.8-5.1-5.1-7.6-10.4-7.6
	c-9.1,0-16.4,9.2-16.4,20.4c0,9.5,5.8,16.4,13.7,16.4c4.7,0,8.3-2.4,10.4-7l0.6,0.3c-0.8,2.4-1.2,3.6-1.7,5.8h17.1L370.7,41.8
	L370.7,41.8z M345.7,73.1c2.4,0,4,1.8,4,4.5c0,3.1-2,5.5-4.5,5.5c-2.4,0-4.2-2-4.2-4.6C341,75.5,343.1,73.1,345.7,73.1L345.7,73.1z"
	/>
<path class="st1" d="M404.4,62.3c-5.5-2.1-10-3.1-14.7-3.1c-9.3,0-16.2,5.5-16.2,13.1c0,3.1,1.3,5.5,3.9,7c1.4,0.9,2.6,1.3,5.6,2
	c2.9,0.7,3.8,1.3,3.8,2.7c0,1.1-1,1.8-2.7,1.8c-3.1,0-6.4-1.2-10.1-3.6l-4.2,10.4c7.5,3.1,11,4,16,4c9.9,0,17-5.3,17-12.9
	c0-4.7-3.2-8.4-8.3-9.5c-2.3-0.5-3.6-0.8-3.7-0.8c-1-0.4-1.5-0.9-1.5-1.9c0-1.1,1-1.8,3-1.8c2.7,0,5.5,1,8,2.9L404.4,62.3
	L404.4,62.3z"/>
<path class="st1" d="M437.4,61.2c-4.7-1.5-7-1.9-10.3-1.9c-12,0-20.2,8.2-20.2,20.2c0,5.6,1.8,9.8,5.6,13c3.3,2.7,7.3,4.2,11.8,4.2
	c2.4,0,4.3-0.3,7.8-1.3l2.5-14.2c-1.9,1.7-3.6,2.4-5.8,2.4c-3,0-5-1.9-5-5c0-3.6,2.1-5.9,5.4-5.9c2.4,0,4.2,0.9,6,3L437.4,61.2
	L437.4,61.2z"/>
<path class="st1" d="M463.9,41.8h-17.1l-6.7,53.9h17.1l1.9-16.1c0.4-2.9,0.4-3.4,1-4.2c0.6-0.8,1.6-1.3,2.5-1.3
	c1.4,0,2.2,0.9,2.2,2.5c0,0.5-0.1,1-0.2,2.4l-2.1,16.7h17.2l2.5-20.8c0.1-1.3,0.3-3,0.3-3.9c0-6.3-4.7-11.1-10.8-11.1
	c-2.3,0-5,0.8-7,2.2c-1.8,1.2-2.7,2.3-4.1,4.7l-0.7-0.2c0.7-2.3,1.3-4.7,1.8-9.3L463.9,41.8L463.9,41.8z"/>
<path class="st1" d="M531,61.2h-17.2l-2.1,17.5c-0.2,2.4-0.4,3-0.8,3.7c-0.5,0.7-1.5,1.3-2.4,1.3c-1.4,0-2.5-1.1-2.5-2.6
	c0-0.4,0.1-1.6,0.3-3l2.1-16.8h-17.2l-2,16.8c-0.2,1.4-0.3,2.8-0.3,4c0,4.2,1.8,8.3,4.7,10.6c3.4,2.6,9,4.2,15.2,4.2
	c5.9,0,10.6-1.4,14.1-4.3c3.6-2.8,5-5.8,5.7-12.2L531,61.2L531,61.2z"/>
<polygon class="st1" points="557.5,41.8 540.4,41.8 533.8,95.7 550.9,95.7 557.5,41.8 "/>
<path class="st1" d="M599.9,80.8c0.2-1.6,0.3-2.7,0.3-3.6c0-10.1-8.9-18.1-20.3-18.1c-12.2,0-21.4,8.4-21.4,19.6
	c0,10.6,8.4,17.9,20.7,17.9c6,0,11.2-1.9,15.2-5.3c2.4-2.1,3.6-4.1,4.9-7.7h-16.5c-0.8,2.1-1.9,3-3.7,3c-2.3,0-3.8-1.9-3.8-4.7
	c0-0.2,0-0.8,0.1-1.3H599.9L599.9,80.8z M576.1,73.7c0.5-3.2,1.9-4.6,4.2-4.6c2.5,0,3.7,1.5,3.8,4.6H576.1L576.1,73.7z"/>
<path class="st2" d="M608.7,56.1v-3.7c6.5-2.8,11.2-6.4,14.2-10.9c3-4.5,4.4-9,4.4-13.7c0-1-0.2-1.7-0.6-2.2
	c-0.4-0.4-0.8-0.7-1.2-0.7c-0.4,0-0.9,0.2-1.5,0.6c-1.6,1-3.6,1.4-6.1,1.4c-3.3,0-6.2-1.3-8.6-3.9c-2.4-2.6-3.7-5.6-3.7-9.1
	c0-3.7,1.4-6.9,4.2-9.8C612.7,1.4,616.1,0,620,0c4.8,0,9,1.9,12.4,5.6c3.4,3.7,5.1,8.9,5.1,15.4c0,8-2.4,15.2-7.3,21.4
	C625.4,48.6,618.2,53.1,608.7,56.1L608.7,56.1z"/>
</svg>
